<?xml version="1.0" standalone="no"?>
<!DOCTYPE svg PUBLIC "-//W3C//DTD SVG 20010904//EN"
 "http://www.w3.org/TR/2001/REC-SVG-20010904/DTD/svg10.dtd">
<svg version="1.0" xmlns="http://www.w3.org/2000/svg"
 width="80.000000pt" height="80.000000pt" viewBox="0 0 80.000000 80.000000"
 preserveAspectRatio="xMidYMid meet">
<metadata>
Created by potrace 1.14, written by Peter Selinger 2001-2017
</metadata>
<g transform="translate(0.000000,80.000000) scale(0.100000,-0.100000)"
fill="#000000" stroke="none">
<path d="M0 400 l0 -400 400 0 400 0 0 400 0 400 -400 0 -400 0 0 -400z m430
300 c0 -5 6 -10 13 -10 7 0 24 -11 39 -25 15 -14 34 -25 41 -25 8 0 17 -6 20
-12 4 -11 58 -32 135 -54 10 -3 10 -9 2 -23 -5 -11 -10 -36 -10 -55 0 -23 -5
-36 -13 -36 -7 0 -21 -16 -30 -35 -14 -30 -15 -35 -2 -35 8 0 17 -12 21 -27 3
-16 8 -34 10 -42 3 -8 -1 -18 -8 -23 -9 -7 -10 -11 -2 -14 7 -3 10 -14 7 -25
-4 -15 0 -22 16 -26 20 -5 31 -33 12 -33 -4 0 -20 -12 -35 -27 -24 -24 -29
-25 -64 -15 -65 19 -80 20 -101 5 -12 -8 -21 -25 -21 -39 0 -21 -5 -24 -32
-24 -18 1 -44 7 -57 14 -13 7 -32 11 -43 8 -41 -10 -137 45 -108 63 5 3 12 31
15 63 4 31 9 70 11 86 4 21 -2 34 -21 52 -14 13 -24 28 -21 33 9 13 -37 54
-75 66 -24 8 -33 18 -36 37 -3 22 1 26 33 31 21 4 42 3 48 0 6 -4 23 -7 39 -8
27 -1 28 0 22 37 -7 38 9 55 21 23 8 -19 53 -20 60 -1 3 8 19 19 35 25 22 7
29 16 29 35 0 14 8 30 18 35 22 13 32 14 32 1z"/>
<path d="M372 518 c-41 -45 -39 -72 12 -148 25 -39 48 -70 50 -70 2 0 20 26
42 58 46 69 51 118 15 156 -32 34 -89 36 -119 4z m88 -36 c28 -22 22 -67 -10
-77 -54 -17 -93 42 -50 77 12 10 26 18 30 18 4 0 18 -8 30 -18z"/>
</g>
</svg>
